<?xml version="1.0" encoding="UTF-8" standalone="no"?>
<!-- Created with Inkscape (http://www.inkscape.org/) -->

<svg
   xmlns:dc="http://purl.org/dc/elements/1.1/"
   xmlns:cc="http://creativecommons.org/ns#"
   xmlns:rdf="http://www.w3.org/1999/02/22-rdf-syntax-ns#"
   xmlns:svg="http://www.w3.org/2000/svg"
   xmlns="http://www.w3.org/2000/svg"
   xmlns:sodipodi="http://sodipodi.sourceforge.net/DTD/sodipodi-0.dtd"
   xmlns:inkscape="http://www.inkscape.org/namespaces/inkscape"
   width="210mm"
   height="297mm"
   viewBox="0 0 210 297"
   version="1.1"
   id="svg8"
   sodipodi:docname="AnleitungPF.svg"
   inkscape:version="0.92.4 (5da689c313, 2019-01-14)">
  <defs
     id="defs2" />
  <sodipodi:namedview
     id="base"
     pagecolor="#ffffff"
     bordercolor="#666666"
     borderopacity="1.0"
     inkscape:pageopacity="0.0"
     inkscape:pageshadow="2"
     inkscape:zoom="0.49497475"
     inkscape:cx="674.50817"
     inkscape:cy="599.42777"
     inkscape:document-units="mm"
     inkscape:current-layer="layer1"
     showgrid="false"
     inkscape:window-width="1920"
     inkscape:window-height="1017"
     inkscape:window-x="-8"
     inkscape:window-y="-8"
     inkscape:window-maximized="1"
     showguides="false" />
  <metadata
     id="metadata5">
    <rdf:RDF>
      <cc:Work
         rdf:about="">
        <dc:format>image/svg+xml</dc:format>
        <dc:type
           rdf:resource="http://purl.org/dc/dcmitype/StillImage" />
        <dc:title></dc:title>
      </cc:Work>
    </rdf:RDF>
  </metadata>
  <g
     inkscape:label="Ebene 1"
     inkscape:groupmode="layer"
     id="layer1">
    <path
       style="fill:none;stroke:#000000;stroke-width:0.4956612px;stroke-linecap:butt;stroke-linejoin:miter;stroke-opacity:1"
       d="M 27.933992,9.5785952 H 177.7063 V 129.08293 H 27.933992 Z"
       id="path841"
       inkscape:connector-curvature="0"
       sodipodi:nodetypes="ccccc" />
    <g
       id="g4605"
       transform="translate(-0.73411044,-4.5441914)">
      <g
         aria-label="1. Schutzkappe
     hochklappen"
         style="font-style:normal;font-weight:normal;font-size:18.3528595px;line-height:1.25;font-family:sans-serif;letter-spacing:0px;word-spacing:0px;fill:#000000;fill-opacity:1;stroke:none;stroke-width:0.45882148"
         id="text12">
        <path
           d="M 48.542292,42.035866 H 46.71463 V 30.998218 l -1.85454,1.13781 v -1.890377 l 1.85454,-1.236359 h 1.827662 z"
           style="font-style:normal;font-variant:normal;font-weight:normal;font-stretch:normal;font-size:18.34829712px;font-family:Bahnschrift;-inkscape-font-specification:Bahnschrift;stroke-width:0.45882148"
           id="path101" />
        <path
           d="m 51.310663,40.208203 h 1.827662 v 1.827663 h -1.827662 z"
           style="font-style:normal;font-variant:normal;font-weight:normal;font-stretch:normal;font-size:18.34829712px;font-family:Bahnschrift;-inkscape-font-specification:Bahnschrift;stroke-width:0.45882148"
           id="path103" />
        <path
           d="m 62.984408,42.170253 q -0.940709,0 -1.782867,-0.179183 -0.842158,-0.179182 -1.576807,-0.537548 -0.725689,-0.358365 -1.361787,-0.895913 v 0 l 1.137809,-1.397624 v 0 q 0.743608,0.645058 1.639521,0.967586 0.895913,0.322529 1.944131,0.322529 1.415542,0 2.194987,-0.51963 0.779444,-0.528588 0.779444,-1.487215 v -0.009 q 0,-0.680894 -0.358365,-1.075096 -0.349406,-0.403161 -0.913832,-0.591302 -0.555466,-0.197101 -1.442419,-0.358366 -0.02688,-0.009 -0.06271,-0.009 -0.02688,0 -0.05375,-0.009 l -0.134387,-0.02688 q -1.308033,-0.223978 -2.132273,-0.501711 -0.815281,-0.286693 -1.397624,-1.0303 -0.582343,-0.752567 -0.582343,-2.132273 v -0.009 q 0,-1.209483 0.537547,-2.0606 0.546507,-0.860076 1.585766,-1.308033 1.039259,-0.447956 2.499597,-0.447956 0.698812,0 1.370747,0.152305 0.680894,0.152305 1.33491,0.456915 0.662976,0.295652 1.299074,0.752567 v 0 l -1.039259,1.451379 v 0 q -0.743608,-0.546507 -1.487215,-0.815281 -0.734649,-0.277733 -1.478257,-0.277733 -1.33491,0 -2.078518,0.537548 -0.734648,0.528589 -0.734648,1.505134 v 0.009 q 0,0.671935 0.376283,1.057177 0.385243,0.385243 0.949668,0.573385 0.573384,0.179182 1.585766,0.376283 0.03584,0.009 0.06271,0.01792 0.03584,0 0.07167,0.009 0.0448,0.009 0.09855,0.01792 0.05376,0.009 0.09855,0.01792 1.182605,0.241897 1.971008,0.573384 0.797363,0.331488 1.325951,1.075096 0.537548,0.734648 0.537548,2.015804 v 0.01792 q 0,1.191564 -0.564425,2.042682 -0.564425,0.842158 -1.639521,1.290114 -1.066136,0.438998 -2.580229,0.438998 z"
           style="font-style:normal;font-variant:normal;font-weight:normal;font-stretch:normal;font-size:18.34829712px;font-family:Bahnschrift;-inkscape-font-specification:Bahnschrift;stroke-width:0.45882148"
           id="path105" />
        <path
           d="m 73.932465,42.170253 q -1.272197,0 -2.177069,-0.474834 -0.895913,-0.474834 -1.370747,-1.379706 -0.474834,-0.904872 -0.474834,-2.186028 v -1.532011 q 0,-1.263237 0.474834,-2.15915 0.474834,-0.895913 1.370747,-1.361788 0.904872,-0.474834 2.177069,-0.474834 0.725689,0 1.361787,0.179183 0.645058,0.170224 1.155728,0.501711 0.51067,0.331488 0.851117,0.806322 v 0 l -1.316992,1.182605 v 0 q -0.394201,-0.447956 -0.92279,-0.689853 -0.528589,-0.241896 -1.101973,-0.241896 -1.057177,0 -1.639521,0.591302 -0.582343,0.591303 -0.582343,1.666398 v 1.532011 q 0,1.101973 0.573384,1.702235 0.582344,0.600262 1.64848,0.600262 0.582343,0 1.110932,-0.259815 0.528589,-0.259815 0.913831,-0.734649 v 0 l 1.316992,1.272197 v 0 q -0.349406,0.465874 -0.860076,0.797362 -0.510671,0.322529 -1.155728,0.492752 -0.636098,0.170224 -1.352828,0.170224 z"
           style="font-style:normal;font-variant:normal;font-weight:normal;font-stretch:normal;font-size:18.34829712px;font-family:Bahnschrift;-inkscape-font-specification:Bahnschrift;stroke-width:0.45882148"
           id="path107" />
        <path
           d="m 79.316903,29.009292 h 1.827662 v 13.026574 h -1.827662 z m 5.644251,7.391281 q 0,-0.985504 -0.51067,-1.523052 -0.510671,-0.537547 -1.433461,-0.537547 -0.895913,0 -1.388665,0.465874 -0.483793,0.465875 -0.483793,1.316992 l -0.188142,-1.791826 q 0.430039,-0.824239 1.119892,-1.272196 0.698812,-0.456916 1.54097,-0.456916 1.514093,0 2.338333,0.994464 0.833199,0.985504 0.833199,2.795248 v 5.644252 h -1.827663 z"
           style="font-style:normal;font-variant:normal;font-weight:normal;font-stretch:normal;font-size:18.34829712px;font-family:Bahnschrift;-inkscape-font-specification:Bahnschrift;stroke-width:0.45882148"
           id="path109" />
        <path
           d="m 95.174559,32.736289 h 1.818703 v 9.299577 H 95.174559 Z M 91.393806,38.3895 q 0,0.976545 0.492752,1.514093 0.501711,0.528589 1.406583,0.528589 0.895913,0 1.388665,-0.474834 0.492753,-0.474834 0.492753,-1.352829 l 0.125427,1.944131 q -0.286692,0.689853 -0.931749,1.155728 -0.645057,0.465875 -1.585766,0.465875 -1.54097,0 -2.383128,-0.985505 -0.833199,-0.994463 -0.833199,-2.795248 v -5.653211 h 1.827662 z"
           style="font-style:normal;font-variant:normal;font-weight:normal;font-stretch:normal;font-size:18.34829712px;font-family:Bahnschrift;-inkscape-font-specification:Bahnschrift;stroke-width:0.45882148"
           id="path111" />
        <path
           d="m 102.19852,42.080661 q -1.12885,0 -1.65744,-0.61818 -0.51963,-0.627139 -0.51963,-1.84558 v -9.586269 h 1.82766 v 9.604187 q 0,0.340447 0.13439,0.528589 0.13439,0.179182 0.3942,0.179182 h 0.878 v 1.738071 z m -3.135697,-9.344372 h 4.192877 v 1.64848 h -4.192877 z"
           style="font-style:normal;font-variant:normal;font-weight:normal;font-stretch:normal;font-size:18.34829712px;font-family:Bahnschrift;-inkscape-font-specification:Bahnschrift;stroke-width:0.45882148"
           id="path113" />
        <path
           d="m 112.17899,34.27726 -4.47061,6.06533 h 4.71251 v 1.693276 h -6.92541 v -1.576807 l 4.58707,-6.029494 h -4.46164 v -1.693276 h 6.55808 z"
           style="font-style:normal;font-variant:normal;font-weight:normal;font-stretch:normal;font-size:18.34829712px;font-family:Bahnschrift;-inkscape-font-specification:Bahnschrift;stroke-width:0.45882148"
           id="path115" />
        <path
           d="m 115.61929,38.505969 4.78418,-5.76968 h 2.15019 l -7.05084,7.937789 z m -0.7884,-9.496677 h 1.82766 v 13.026574 h -1.82766 z m 2.94755,7.660055 1.17365,-1.218441 4.05848,6.58496 h -1.98892 z"
           style="font-style:normal;font-variant:normal;font-weight:normal;font-stretch:normal;font-size:18.34829712px;font-family:Bahnschrift;-inkscape-font-specification:Bahnschrift;stroke-width:0.45882148"
           id="path117" />
        <path
           d="m 129.79264,36.140759 q 0,-0.913832 -0.49275,-1.415543 -0.4838,-0.51067 -1.37971,-0.51067 -0.55547,0 -1.09301,0.170223 -0.52859,0.170224 -0.94071,0.474834 l -1.33491,-0.913831 q 0.52859,-0.636098 1.38866,-0.985504 0.86904,-0.358366 1.92621,-0.358366 1.15573,0 1.97997,0.41212 0.82424,0.403161 1.25428,1.182606 0.43004,0.770485 0.43004,1.863498 v 5.97574 h -1.73807 z m -2.27562,6.029494 q -1.72015,0 -2.57127,-0.707772 -0.85112,-0.71673 -0.85112,-2.168109 0,-1.379706 0.77945,-2.069559 0.77944,-0.689853 2.35625,-0.689853 h 2.64294 l 0.12543,1.469298 h -2.75941 q -0.71673,0 -1.0751,0.322528 -0.34941,0.31357 -0.34941,0.967586 0,0.707771 0.46588,1.048218 0.47483,0.340447 1.43346,0.340447 1.04822,0 1.55889,-0.223978 0.51963,-0.223978 0.51963,-0.698812 l 0.18814,1.308033 q -0.2419,0.376283 -0.60026,0.61818 -0.34941,0.241896 -0.81528,0.358365 -0.46588,0.125428 -1.04822,0.125428 z"
           style="font-style:normal;font-variant:normal;font-weight:normal;font-stretch:normal;font-size:18.34829712px;font-family:Bahnschrift;-inkscape-font-specification:Bahnschrift;stroke-width:0.45882148"
           id="path119" />
        <path
           d="m 134.32596,32.736289 h 1.82766 v 13.080329 h -1.82766 z m 4.16599,9.433964 q -0.86903,0 -1.51409,-0.41212 -0.64506,-0.421079 -0.94967,-1.182605 l 0.12543,-1.944131 q 0,0.600261 0.21502,1.02134 0.21502,0.421079 0.61818,0.645058 0.41212,0.223978 0.99446,0.223978 0.90488,0 1.39763,-0.546507 0.50171,-0.555466 0.50171,-1.558889 v -2.015804 q 0,-1.02134 -0.50171,-1.585766 -0.49275,-0.564425 -1.39763,-0.564425 -0.58234,0 -0.99446,0.215019 -0.40316,0.21502 -0.61818,0.636099 -0.21502,0.41212 -0.21502,0.994463 l -0.18814,-1.791826 q 0.42108,-0.815281 1.10197,-1.254278 0.6809,-0.447957 1.5141,-0.447957 0.9855,0 1.68431,0.447957 0.70777,0.438997 1.0751,1.290115 0.36732,0.851117 0.36732,2.05164 v 2.024763 q 0,1.182606 -0.37628,2.024764 -0.37629,0.842158 -1.10197,1.290114 -0.72569,0.438998 -1.73808,0.438998 z"
           style="font-style:normal;font-variant:normal;font-weight:normal;font-stretch:normal;font-size:18.34829712px;font-family:Bahnschrift;-inkscape-font-specification:Bahnschrift;stroke-width:0.45882148"
           id="path121" />
        <path
           d="m 144.32434,32.736289 h 1.82766 v 13.080329 h -1.82766 z m 4.166,9.433964 q -0.86904,0 -1.5141,-0.41212 -0.64505,-0.421079 -0.94966,-1.182605 l 0.12542,-1.944131 q 0,0.600261 0.21502,1.02134 0.21502,0.421079 0.61818,0.645058 0.41212,0.223978 0.99447,0.223978 0.90487,0 1.39762,-0.546507 0.50171,-0.555466 0.50171,-1.558889 v -2.015804 q 0,-1.02134 -0.50171,-1.585766 -0.49275,-0.564425 -1.39762,-0.564425 -0.58235,0 -0.99447,0.215019 -0.40316,0.21502 -0.61818,0.636099 -0.21502,0.41212 -0.21502,0.994463 l -0.18814,-1.791826 q 0.42108,-0.815281 1.10197,-1.254278 0.6809,-0.447957 1.5141,-0.447957 0.9855,0 1.68431,0.447957 0.70778,0.438997 1.0751,1.290115 0.36732,0.851117 0.36732,2.05164 v 2.024763 q 0,1.182606 -0.37628,2.024764 -0.37628,0.842158 -1.10197,1.290114 -0.72569,0.438998 -1.73807,0.438998 z"
           style="font-style:normal;font-variant:normal;font-weight:normal;font-stretch:normal;font-size:18.34829712px;font-family:Bahnschrift;-inkscape-font-specification:Bahnschrift;stroke-width:0.45882148"
           id="path123" />
        <path
           d="m 158.13036,42.170253 q -1.29011,0 -2.20394,-0.483793 -0.91384,-0.483793 -1.39763,-1.415543 -0.47483,-0.940708 -0.47483,-2.266659 v -1.048219 q 0,-1.379706 0.45691,-2.356251 0.46588,-0.976545 1.34387,-1.487215 0.878,-0.510671 2.11436,-0.510671 1.16468,0 1.98892,0.582344 0.82424,0.582343 1.25428,1.684316 0.439,1.101973 0.439,2.642943 v 0.609221 h -6.27139 v -1.469297 h 4.53332 v 0 q -0.0806,-1.137809 -0.5913,-1.764949 -0.50172,-0.636098 -1.35283,-0.636098 -1.03926,0 -1.61265,0.680894 -0.56442,0.680894 -0.56442,1.926213 v 1.182605 q 0,1.155728 0.60922,1.773908 0.60922,0.61818 1.72911,0.61818 0.55547,0 1.10197,-0.223979 0.54651,-0.223978 0.97655,-0.627139 v 0 l 1.20052,1.200524 v 0 q -0.68985,0.662975 -1.54993,1.0303 -0.86007,0.358365 -1.72911,0.358365 z"
           style="font-style:normal;font-variant:normal;font-weight:normal;font-stretch:normal;font-size:18.34829712px;font-family:Bahnschrift;-inkscape-font-specification:Bahnschrift;stroke-width:0.45882148"
           id="path125" />
        <path
           d="m 61.255297,52.067577 h 1.827663 v 13.026575 h -1.827663 z m 5.644252,7.391282 q 0,-0.985504 -0.510671,-1.523052 -0.51067,-0.537548 -1.43346,-0.537548 -0.895913,0 -1.388665,0.465875 -0.483793,0.465875 -0.483793,1.316992 L 62.894818,57.3893 q 0.430038,-0.82424 1.119891,-1.272196 0.698812,-0.456916 1.54097,-0.456916 1.514093,0 2.338333,0.994464 0.833199,0.985504 0.833199,2.795248 v 5.644252 h -1.827662 z"
           style="font-style:normal;font-variant:normal;font-weight:normal;font-stretch:normal;font-size:18.34829712px;font-family:Bahnschrift;-inkscape-font-specification:Bahnschrift;stroke-width:0.45882148"
           id="path127" />
        <path
           d="m 75.070273,65.228539 q -1.209482,0 -2.069558,-0.474834 -0.860077,-0.474834 -1.316992,-1.379706 -0.447957,-0.913831 -0.447957,-2.194987 v -1.514093 q 0,-1.263237 0.447957,-2.15915 0.456915,-0.904872 1.316992,-1.370747 0.860076,-0.474834 2.069558,-0.474834 1.209483,0 2.069559,0.474834 0.860077,0.465875 1.308033,1.370747 0.456916,0.895913 0.456916,2.15915 v 1.54097 q 0,1.272197 -0.456916,2.177069 -0.447956,0.895913 -1.308033,1.370747 -0.860076,0.474834 -2.069559,0.474834 z m 0,-1.738072 q 0.958627,0 1.478257,-0.600261 0.528588,-0.600262 0.528588,-1.684317 v -1.54097 q 0,-1.084054 -0.528588,-1.675357 -0.51963,-0.591303 -1.478257,-0.591303 -0.958626,0 -1.487215,0.591303 -0.51963,0.591303 -0.51963,1.675357 v 1.54097 q 0,1.084055 0.51963,1.684317 0.528589,0.600261 1.487215,0.600261 z"
           style="font-style:normal;font-variant:normal;font-weight:normal;font-stretch:normal;font-size:18.34829712px;font-family:Bahnschrift;-inkscape-font-specification:Bahnschrift;stroke-width:0.45882148"
           id="path129" />
        <path
           d="m 85.256805,65.228539 q -1.272196,0 -2.177068,-0.474834 -0.895913,-0.474834 -1.370747,-1.379706 -0.474834,-0.904872 -0.474834,-2.186028 V 59.65596 q 0,-1.263237 0.474834,-2.15915 0.474834,-0.895913 1.370747,-1.361788 0.904872,-0.474834 2.177068,-0.474834 0.72569,0 1.361788,0.179183 0.645057,0.170223 1.155728,0.501711 0.51067,0.331488 0.851117,0.806322 v 0 l -1.316992,1.182605 v 0 q -0.394202,-0.447957 -0.92279,-0.689853 -0.528589,-0.241897 -1.101973,-0.241897 -1.057177,0 -1.639521,0.591303 -0.582343,0.591303 -0.582343,1.666398 v 1.532011 q 0,1.101973 0.573384,1.702235 0.582343,0.600261 1.64848,0.600261 0.582343,0 1.110932,-0.259814 0.528588,-0.259815 0.913831,-0.734649 v 0 l 1.316992,1.272197 v 0 q -0.349406,0.465874 -0.860076,0.797362 -0.510671,0.322529 -1.155728,0.492752 -0.636098,0.170224 -1.352829,0.170224 z"
           style="font-style:normal;font-variant:normal;font-weight:normal;font-stretch:normal;font-size:18.34829712px;font-family:Bahnschrift;-inkscape-font-specification:Bahnschrift;stroke-width:0.45882148"
           id="path131" />
        <path
           d="m 90.64124,52.067577 h 1.827662 V 65.094152 H 90.64124 Z m 5.644251,7.391282 q 0,-0.985504 -0.51067,-1.523052 -0.510671,-0.537548 -1.433461,-0.537548 -0.895913,0 -1.388665,0.465875 -0.483793,0.465875 -0.483793,1.316992 L 92.28076,57.3893 q 0.430039,-0.82424 1.119892,-1.272196 0.698812,-0.456916 1.54097,-0.456916 1.514093,0 2.338333,0.994464 0.833199,0.985504 0.833199,2.795248 v 5.644252 h -1.827663 z"
           style="font-style:normal;font-variant:normal;font-weight:normal;font-stretch:normal;font-size:18.34829712px;font-family:Bahnschrift;-inkscape-font-specification:Bahnschrift;stroke-width:0.45882148"
           id="path133" />
        <path
           d="m 101.67889,61.564255 4.78417,-5.76968 h 2.15019 l -7.05083,7.937789 z m -0.78841,-9.496678 h 1.82767 v 13.026575 h -1.82767 z m 2.94756,7.660056 1.17364,-1.218441 4.05849,6.58496 h -1.98893 z"
           style="font-style:normal;font-variant:normal;font-weight:normal;font-stretch:normal;font-size:18.34829712px;font-family:Bahnschrift;-inkscape-font-specification:Bahnschrift;stroke-width:0.45882148"
           id="path135" />
        <path
           d="m 112.42984,62.693105 q 0,0.340447 0.14335,0.528589 0.1523,0.179182 0.42108,0.179182 h 0.86007 v 1.738071 h -1.07509 q -1.03926,0 -1.61264,-0.645057 -0.56443,-0.645057 -0.56443,-1.818703 v -10.60761 h 1.82766 z"
           style="font-style:normal;font-variant:normal;font-weight:normal;font-stretch:normal;font-size:18.34829712px;font-family:Bahnschrift;-inkscape-font-specification:Bahnschrift;stroke-width:0.45882148"
           id="path137" />
        <path
           d="m 121.08436,59.199044 q 0,-0.913831 -0.49275,-1.415542 -0.48379,-0.51067 -1.37971,-0.51067 -0.55546,0 -1.09301,0.170223 -0.52859,0.170224 -0.94071,0.474834 l -1.33491,-0.913831 q 0.52859,-0.636098 1.38867,-0.985504 0.86903,-0.358366 1.92621,-0.358366 1.15573,0 1.97997,0.41212 0.82424,0.403161 1.25428,1.182605 0.43003,0.770486 0.43003,1.863499 v 5.97574 h -1.73807 z m -2.27562,6.029495 q -1.72015,0 -2.57127,-0.707772 -0.85111,-0.71673 -0.85111,-2.168109 0,-1.379706 0.77944,-2.069559 0.77944,-0.689853 2.35625,-0.689853 h 2.64294 l 0.12543,1.469297 h -2.75941 q -0.71673,0 -1.07509,0.322529 -0.34941,0.31357 -0.34941,0.967586 0,0.707771 0.46587,1.048218 0.47484,0.340447 1.43346,0.340447 1.04822,0 1.55889,-0.223978 0.51963,-0.223978 0.51963,-0.698812 l 0.18814,1.308033 q -0.24189,0.376283 -0.60026,0.61818 -0.3494,0.241896 -0.81528,0.358365 -0.46587,0.125428 -1.04822,0.125428 z"
           style="font-style:normal;font-variant:normal;font-weight:normal;font-stretch:normal;font-size:18.34829712px;font-family:Bahnschrift;-inkscape-font-specification:Bahnschrift;stroke-width:0.45882148"
           id="path139" />
        <path
           d="m 125.61768,55.794575 h 1.82767 v 13.080329 h -1.82767 z m 4.166,9.433964 q -0.86904,0 -1.51409,-0.41212 -0.64506,-0.421079 -0.94967,-1.182605 l 0.12543,-1.944132 q 0,0.600262 0.21502,1.021341 0.21501,0.421079 0.61818,0.645058 0.41212,0.223978 0.99446,0.223978 0.90487,0 1.39762,-0.546507 0.50171,-0.555466 0.50171,-1.558889 v -2.015804 q 0,-1.021341 -0.50171,-1.585766 -0.49275,-0.564425 -1.39762,-0.564425 -0.58234,0 -0.99446,0.215019 -0.40317,0.215019 -0.61818,0.636098 -0.21502,0.41212 -0.21502,0.994464 l -0.18815,-1.791826 q 0.42108,-0.815281 1.10198,-1.254278 0.68089,-0.447957 1.51409,-0.447957 0.9855,0 1.68432,0.447957 0.70777,0.438997 1.07509,1.290114 0.36733,0.851118 0.36733,2.051641 v 2.024763 q 0,1.182605 -0.37629,2.024764 -0.37628,0.842158 -1.10197,1.290114 -0.72569,0.438998 -1.73807,0.438998 z"
           style="font-style:normal;font-variant:normal;font-weight:normal;font-stretch:normal;font-size:18.34829712px;font-family:Bahnschrift;-inkscape-font-specification:Bahnschrift;stroke-width:0.45882148"
           id="path141" />
        <path
           d="m 135.61607,55.794575 h 1.82767 v 13.080329 h -1.82767 z m 4.166,9.433964 q -0.86904,0 -1.51409,-0.41212 -0.64506,-0.421079 -0.94967,-1.182605 l 0.12543,-1.944132 q 0,0.600262 0.21502,1.021341 0.21501,0.421079 0.61818,0.645058 0.41212,0.223978 0.99446,0.223978 0.90487,0 1.39762,-0.546507 0.50171,-0.555466 0.50171,-1.558889 v -2.015804 q 0,-1.021341 -0.50171,-1.585766 -0.49275,-0.564425 -1.39762,-0.564425 -0.58234,0 -0.99446,0.215019 -0.40317,0.215019 -0.61818,0.636098 -0.21502,0.41212 -0.21502,0.994464 l -0.18815,-1.791826 q 0.42108,-0.815281 1.10198,-1.254278 0.68089,-0.447957 1.51409,-0.447957 0.9855,0 1.68432,0.447957 0.70777,0.438997 1.07509,1.290114 0.36733,0.851118 0.36733,2.051641 v 2.024763 q 0,1.182605 -0.37629,2.024764 -0.37628,0.842158 -1.10197,1.290114 -0.72569,0.438998 -1.73807,0.438998 z"
           style="font-style:normal;font-variant:normal;font-weight:normal;font-stretch:normal;font-size:18.34829712px;font-family:Bahnschrift;-inkscape-font-specification:Bahnschrift;stroke-width:0.45882148"
           id="path143" />
        <path
           d="m 149.42209,65.228539 q -1.29012,0 -2.20395,-0.483793 -0.91383,-0.483793 -1.39762,-1.415543 -0.47484,-0.940708 -0.47484,-2.26666 v -1.048218 q 0,-1.379706 0.45692,-2.356251 0.46587,-0.976545 1.34387,-1.487215 0.87799,-0.510671 2.11435,-0.510671 1.16469,0 1.98893,0.582344 0.82424,0.582343 1.25428,1.684316 0.43899,1.101973 0.43899,2.642943 v 0.609221 h -6.27139 v -1.469297 h 4.53332 v 0 q -0.0806,-1.13781 -0.5913,-1.764949 -0.50171,-0.636098 -1.35283,-0.636098 -1.03926,0 -1.61264,0.680894 -0.56443,0.680894 -0.56443,1.926213 v 1.182605 q 0,1.155728 0.60922,1.773908 0.60923,0.618179 1.72912,0.618179 0.55546,0 1.10197,-0.223978 0.54651,-0.223978 0.97654,-0.627139 v 0 l 1.20053,1.200524 v 0 q -0.68985,0.662975 -1.54993,1.030299 -0.86008,0.358366 -1.72911,0.358366 z"
           style="font-style:normal;font-variant:normal;font-weight:normal;font-stretch:normal;font-size:18.34829712px;font-family:Bahnschrift;-inkscape-font-specification:Bahnschrift;stroke-width:0.45882148"
           id="path145" />
        <path
           d="m 155.4695,55.794575 h 1.82766 v 9.299577 h -1.82766 z m 5.64425,3.664284 q 0,-0.985504 -0.51067,-1.523052 -0.51067,-0.537548 -1.43346,-0.537548 -0.89591,0 -1.38867,0.474834 -0.48379,0.474834 -0.48379,1.334911 l -0.18814,-1.791826 q 0.43004,-0.842158 1.11989,-1.299074 0.69881,-0.456916 1.54097,-0.456916 1.51409,0 2.33833,0.994464 0.8332,0.985504 0.8332,2.795248 v 5.644252 h -1.82766 z"
           style="font-style:normal;font-variant:normal;font-weight:normal;font-stretch:normal;font-size:18.34829712px;font-family:Bahnschrift;-inkscape-font-specification:Bahnschrift;stroke-width:0.45882148"
           id="path147" />
      </g>
      <g
         aria-label="2. Schalter nach 
     oben umlegen"
         style="font-style:normal;font-weight:normal;font-size:18.3528595px;line-height:1.25;font-family:sans-serif;letter-spacing:0px;word-spacing:0px;fill:#000000;fill-opacity:1;stroke:none;stroke-width:0.45882148"
         id="text4555">
        <path
           d="m 40.284887,90.450199 4.542279,-6.056371 q 0.394202,-0.51963 0.609221,-1.075096 0.223978,-0.564425 0.223978,-1.048218 v -0.01792 q 0,-0.779445 -0.456916,-1.209483 -0.456915,-0.430038 -1.299073,-0.430038 -0.797363,0 -1.290115,0.474834 -0.492752,0.465875 -0.600262,1.325951 v 0.009 h -1.890376 v -0.009 q 0.161264,-1.119891 0.654016,-1.908295 0.501712,-0.797362 1.290115,-1.209482 0.788403,-0.421079 1.818703,-0.421079 1.164687,0 1.988927,0.403161 0.82424,0.394201 1.254278,1.155727 0.430038,0.761526 0.430038,1.836622 v 0.009 q 0,0.689853 -0.286692,1.44242 -0.286692,0.752567 -0.797362,1.451379 l -3.771794,5.124622 h 4.927521 v 1.738071 h -7.346486 z"
           style="font-style:normal;font-variant:normal;font-weight:normal;font-stretch:normal;font-size:18.34829712px;font-family:Bahnschrift;-inkscape-font-specification:Bahnschrift;stroke-width:0.45882148"
           id="path150" />
        <path
           d="m 49.799483,90.208303 h 1.827662 v 1.827662 h -1.827662 z"
           style="font-style:normal;font-variant:normal;font-weight:normal;font-stretch:normal;font-size:18.34829712px;font-family:Bahnschrift;-inkscape-font-specification:Bahnschrift;stroke-width:0.45882148"
           id="path152" />
        <path
           d="m 61.473229,92.170352 q -0.940709,0 -1.782867,-0.179183 -0.842158,-0.179182 -1.576807,-0.537547 -0.725689,-0.358366 -1.361787,-0.895913 v 0 l 1.137809,-1.397625 v 0 q 0.743608,0.645058 1.639521,0.967586 0.895913,0.322529 1.944131,0.322529 1.415542,0 2.194987,-0.519629 0.779444,-0.528589 0.779444,-1.487216 v -0.009 q 0,-0.680894 -0.358365,-1.075096 -0.349406,-0.40316 -0.913832,-0.591302 -0.555466,-0.197101 -1.442419,-0.358365 -0.02688,-0.009 -0.06271,-0.009 -0.02688,0 -0.05376,-0.009 l -0.134387,-0.02688 q -1.308033,-0.223978 -2.132273,-0.501711 -0.815281,-0.286692 -1.397624,-1.0303 -0.582343,-0.752567 -0.582343,-2.132273 v -0.009 q 0,-1.209483 0.537547,-2.0606 0.546507,-0.860076 1.585766,-1.308033 1.039259,-0.447956 2.499597,-0.447956 0.698812,0 1.370747,0.152305 0.680894,0.152305 1.33491,0.456916 0.662976,0.295651 1.299074,0.752566 v 0 L 64.95833,81.68817 v 0 q -0.743608,-0.546506 -1.487215,-0.81528 -0.734649,-0.277733 -1.478257,-0.277733 -1.33491,0 -2.078518,0.537547 -0.734648,0.528589 -0.734648,1.505134 v 0.009 q 0,0.671935 0.376283,1.057178 0.385243,0.385242 0.949668,0.573384 0.573384,0.179182 1.585766,0.376283 0.03584,0.009 0.06271,0.01792 0.03584,0 0.07167,0.009 0.0448,0.009 0.09855,0.01792 0.05376,0.009 0.09855,0.01792 1.182605,0.241897 1.971008,0.573384 0.797363,0.331488 1.325951,1.075096 0.537548,0.734649 0.537548,2.015804 v 0.01792 q 0,1.191565 -0.564425,2.042682 -0.564425,0.842158 -1.639521,1.290115 -1.066136,0.438997 -2.580229,0.438997 z"
           style="font-style:normal;font-variant:normal;font-weight:normal;font-stretch:normal;font-size:18.34829712px;font-family:Bahnschrift;-inkscape-font-specification:Bahnschrift;stroke-width:0.45882148"
           id="path154" />
        <path
           d="m 72.421284,92.170352 q -1.272197,0 -2.177069,-0.474834 -0.895913,-0.474834 -1.370747,-1.379706 -0.474833,-0.904872 -0.474833,-2.186027 v -1.532012 q 0,-1.263237 0.474833,-2.15915 0.474834,-0.895913 1.370747,-1.361787 0.904872,-0.474834 2.177069,-0.474834 0.725689,0 1.361787,0.179182 0.645058,0.170224 1.155728,0.501711 0.51067,0.331488 0.851117,0.806322 v 0 l -1.316992,1.182605 v 0 q -0.394201,-0.447956 -0.92279,-0.689853 -0.528589,-0.241896 -1.101973,-0.241896 -1.057177,0 -1.639521,0.591302 -0.582343,0.591303 -0.582343,1.666398 v 1.532012 q 0,1.101972 0.573384,1.702234 0.582344,0.600262 1.64848,0.600262 0.582344,0 1.110932,-0.259815 0.528589,-0.259815 0.913831,-0.734649 v 0 l 1.316992,1.272197 v 0 q -0.349406,0.465875 -0.860076,0.797362 -0.51067,0.322529 -1.155728,0.492752 -0.636098,0.170224 -1.352828,0.170224 z"
           style="font-style:normal;font-variant:normal;font-weight:normal;font-stretch:normal;font-size:18.34829712px;font-family:Bahnschrift;-inkscape-font-specification:Bahnschrift;stroke-width:0.45882148"
           id="path156" />
        <path
           d="m 77.805722,79.009391 h 1.827662 v 13.026574 h -1.827662 z m 5.644251,7.391282 q 0,-0.985505 -0.51067,-1.523052 -0.51067,-0.537548 -1.433461,-0.537548 -0.895913,0 -1.388665,0.465874 -0.483793,0.465875 -0.483793,1.316993 l -0.188142,-1.791826 q 0.430039,-0.82424 1.119892,-1.272197 0.698812,-0.456915 1.54097,-0.456915 1.514093,0 2.338333,0.994463 0.833199,0.985504 0.833199,2.795248 v 5.644252 h -1.827663 z"
           style="font-style:normal;font-variant:normal;font-weight:normal;font-stretch:normal;font-size:18.34829712px;font-family:Bahnschrift;-inkscape-font-specification:Bahnschrift;stroke-width:0.45882148"
           id="path158" />
        <path
           d="m 93.305016,86.140858 q 0,-0.913831 -0.492752,-1.415543 -0.483793,-0.51067 -1.379706,-0.51067 -0.555466,0 -1.093014,0.170223 -0.528588,0.170224 -0.940708,0.474834 l -1.33491,-0.913831 q 0.528588,-0.636098 1.388665,-0.985504 0.869035,-0.358365 1.926212,-0.358365 1.155728,0 1.979968,0.41212 0.82424,0.40316 1.254278,1.182605 0.430038,0.770485 0.430038,1.863499 v 5.975739 h -1.738071 z m -2.275619,6.029494 q -1.720152,0 -2.57127,-0.707771 -0.851117,-0.716731 -0.851117,-2.16811 0,-1.379706 0.779444,-2.069559 0.779445,-0.689853 2.356251,-0.689853 h 2.642943 l 0.125428,1.469298 h -2.759412 q -0.71673,0 -1.075095,0.322528 -0.349406,0.31357 -0.349406,0.967586 0,0.707772 0.465875,1.048218 0.474833,0.340447 1.43346,0.340447 1.048218,0 1.558889,-0.223978 0.519629,-0.223978 0.519629,-0.698812 l 0.188142,1.308033 q -0.241896,0.376283 -0.600262,0.61818 -0.349406,0.241896 -0.81528,0.358365 -0.465875,0.125428 -1.048219,0.125428 z"
           style="font-style:normal;font-variant:normal;font-weight:normal;font-stretch:normal;font-size:18.34829712px;font-family:Bahnschrift;-inkscape-font-specification:Bahnschrift;stroke-width:0.45882148"
           id="path160" />
        <path
           d="m 99.665996,89.634918 q 0,0.340447 0.143346,0.528589 0.152305,0.179182 0.421078,0.179182 h 0.86008 v 1.738072 h -1.0751 q -1.039257,0 -1.612641,-0.645058 Q 97.838334,90.790646 97.838334,89.617 V 79.009391 h 1.827662 z"
           style="font-style:normal;font-variant:normal;font-weight:normal;font-stretch:normal;font-size:18.34829712px;font-family:Bahnschrift;-inkscape-font-specification:Bahnschrift;stroke-width:0.45882148"
           id="path162" />
        <path
           d="m 105.5611,92.080761 q -1.12885,0 -1.65743,-0.61818 -0.51963,-0.627139 -0.51963,-1.845581 v -9.586269 h 1.82766 v 9.604187 q 0,0.340447 0.13439,0.528589 0.13438,0.179182 0.3942,0.179182 h 0.87799 v 1.738072 z m -3.13569,-9.344372 h 4.19287 v 1.648479 h -4.19287 z"
           style="font-style:normal;font-variant:normal;font-weight:normal;font-stretch:normal;font-size:18.34829712px;font-family:Bahnschrift;-inkscape-font-specification:Bahnschrift;stroke-width:0.45882148"
           id="path164" />
        <path
           d="m 112.93447,92.170352 q -1.29012,0 -2.20395,-0.483793 -0.91383,-0.483793 -1.39762,-1.415543 -0.47483,-0.940708 -0.47483,-2.266659 v -1.048218 q 0,-1.379706 0.45691,-2.356251 0.46588,-0.976546 1.34387,-1.487216 0.87799,-0.51067 2.11435,-0.51067 1.16469,0 1.98893,0.582343 0.82424,0.582343 1.25428,1.684316 0.439,1.101973 0.439,2.642944 v 0.60922 h -6.27139 v -1.469297 h 4.53332 v 0 q -0.0806,-1.137809 -0.59131,-1.764948 -0.50171,-0.636099 -1.35283,-0.636099 -1.03925,0 -1.61264,0.680894 -0.56442,0.680894 -0.56442,1.926213 v 1.182605 q 0,1.155728 0.60922,1.773908 0.60922,0.61818 1.72911,0.61818 0.55547,0 1.10197,-0.223978 0.54651,-0.223979 0.97655,-0.62714 v 0 l 1.20052,1.200524 v 0 q -0.68985,0.662975 -1.54993,1.0303 -0.86008,0.358365 -1.72911,0.358365 z"
           style="font-style:normal;font-variant:normal;font-weight:normal;font-stretch:normal;font-size:18.34829712px;font-family:Bahnschrift;-inkscape-font-specification:Bahnschrift;stroke-width:0.45882148"
           id="path166" />
        <path
           d="m 118.98188,82.736389 h 1.82766 v 9.299576 h -1.82766 z m 5.11566,2.203945 q -0.24189,-0.295651 -0.60922,-0.447956 -0.36732,-0.152305 -0.85111,-0.152305 -0.86904,0 -1.35283,0.483793 -0.47484,0.474834 -0.47484,1.325951 l -0.18814,-1.791826 q 0.43004,-0.833199 1.11093,-1.290115 0.6809,-0.465874 1.50514,-0.465874 0.6361,0 1.14677,0.188141 0.51963,0.179183 0.90487,0.537548 z"
           style="font-style:normal;font-variant:normal;font-weight:normal;font-stretch:normal;font-size:18.34829712px;font-family:Bahnschrift;-inkscape-font-specification:Bahnschrift;stroke-width:0.45882148"
           id="path168" />
        <path
           d="m 129.98369,82.736389 h 1.82766 v 9.299576 h -1.82766 z m 5.64425,3.664284 q 0,-0.985505 -0.51067,-1.523052 -0.51067,-0.537548 -1.43346,-0.537548 -0.89591,0 -1.38867,0.474834 -0.48379,0.474833 -0.48379,1.33491 l -0.18814,-1.791826 q 0.43004,-0.842158 1.11989,-1.299074 0.69881,-0.456915 1.54097,-0.456915 1.51409,0 2.33833,0.994463 0.8332,0.985504 0.8332,2.795248 v 5.644252 h -1.82766 z"
           style="font-style:normal;font-variant:normal;font-weight:normal;font-stretch:normal;font-size:18.34829712px;font-family:Bahnschrift;-inkscape-font-specification:Bahnschrift;stroke-width:0.45882148"
           id="path170" />
        <path
           d="m 145.48298,86.140858 q 0,-0.913831 -0.49275,-1.415543 -0.48379,-0.51067 -1.3797,-0.51067 -0.55547,0 -1.09302,0.170223 -0.52859,0.170224 -0.94071,0.474834 l -1.33491,-0.913831 q 0.52859,-0.636098 1.38867,-0.985504 0.86903,-0.358365 1.92621,-0.358365 1.15573,0 1.97997,0.41212 0.82424,0.40316 1.25428,1.182605 0.43003,0.770485 0.43003,1.863499 v 5.975739 h -1.73807 z m -2.27562,6.029494 q -1.72015,0 -2.57127,-0.707771 -0.85111,-0.716731 -0.85111,-2.16811 0,-1.379706 0.77944,-2.069559 0.77945,-0.689853 2.35625,-0.689853 h 2.64295 l 0.12542,1.469298 h -2.75941 q -0.71673,0 -1.07509,0.322528 -0.34941,0.31357 -0.34941,0.967586 0,0.707772 0.46587,1.048218 0.47484,0.340447 1.43347,0.340447 1.04821,0 1.55888,-0.223978 0.51963,-0.223978 0.51963,-0.698812 l 0.18815,1.308033 q -0.2419,0.376283 -0.60027,0.61818 -0.3494,0.241896 -0.81528,0.358365 -0.46587,0.125428 -1.04822,0.125428 z"
           style="font-style:normal;font-variant:normal;font-weight:normal;font-stretch:normal;font-size:18.34829712px;font-family:Bahnschrift;-inkscape-font-specification:Bahnschrift;stroke-width:0.45882148"
           id="path172" />
        <path
           d="m 153.77018,92.170352 q -1.2722,0 -2.17707,-0.474834 -0.89591,-0.474834 -1.37075,-1.379706 -0.47483,-0.904872 -0.47483,-2.186027 v -1.532012 q 0,-1.263237 0.47483,-2.15915 0.47484,-0.895913 1.37075,-1.361787 0.90487,-0.474834 2.17707,-0.474834 0.72569,0 1.36179,0.179182 0.64505,0.170224 1.15573,0.501711 0.51067,0.331488 0.85111,0.806322 v 0 l -1.31699,1.182605 v 0 q -0.3942,-0.447956 -0.92279,-0.689853 -0.52859,-0.241896 -1.10197,-0.241896 -1.05718,0 -1.63952,0.591302 -0.58235,0.591303 -0.58235,1.666398 v 1.532012 q 0,1.101972 0.57339,1.702234 0.58234,0.600262 1.64848,0.600262 0.58234,0 1.11093,-0.259815 0.52859,-0.259815 0.91383,-0.734649 v 0 l 1.31699,1.272197 v 0 q -0.3494,0.465875 -0.86007,0.797362 -0.51067,0.322529 -1.15573,0.492752 -0.6361,0.170224 -1.35283,0.170224 z"
           style="font-style:normal;font-variant:normal;font-weight:normal;font-stretch:normal;font-size:18.34829712px;font-family:Bahnschrift;-inkscape-font-specification:Bahnschrift;stroke-width:0.45882148"
           id="path174" />
        <path
           d="m 159.15462,79.009391 h 1.82766 v 13.026574 h -1.82766 z m 5.64425,7.391282 q 0,-0.985505 -0.51067,-1.523052 -0.51067,-0.537548 -1.43346,-0.537548 -0.89591,0 -1.38867,0.465874 -0.48379,0.465875 -0.48379,1.316993 l -0.18814,-1.791826 q 0.43004,-0.82424 1.11989,-1.272197 0.69881,-0.456915 1.54097,-0.456915 1.51409,0 2.33833,0.994463 0.8332,0.985504 0.8332,2.795248 v 5.644252 h -1.82766 z"
           style="font-style:normal;font-variant:normal;font-weight:normal;font-stretch:normal;font-size:18.34829712px;font-family:Bahnschrift;-inkscape-font-specification:Bahnschrift;stroke-width:0.45882148"
           id="path176" />
        <path
           d="m 59.905381,115.22864 q -1.209482,0 -2.069559,-0.47484 -0.860076,-0.47483 -1.316992,-1.3797 -0.447956,-0.91383 -0.447956,-2.19499 v -1.51409 q 0,-1.26324 0.447956,-2.15915 0.456916,-0.90487 1.316992,-1.37075 0.860077,-0.47483 2.069559,-0.47483 1.209483,0 2.069559,0.47483 0.860077,0.46588 1.308033,1.37075 0.456916,0.89591 0.456916,2.15915 v 1.54097 q 0,1.2722 -0.456916,2.17707 -0.447956,0.89591 -1.308033,1.37074 -0.860076,0.47484 -2.069559,0.47484 z m 0,-1.73807 q 0.958627,0 1.478257,-0.60026 0.528588,-0.60027 0.528588,-1.68432 v -1.54097 q 0,-1.08406 -0.528588,-1.67536 -0.51963,-0.5913 -1.478257,-0.5913 -0.958627,0 -1.487215,0.5913 -0.51963,0.5913 -0.51963,1.67536 v 1.54097 q 0,1.08405 0.51963,1.68432 0.528588,0.60026 1.487215,0.60026 z"
           style="font-style:normal;font-variant:normal;font-weight:normal;font-stretch:normal;font-size:18.34829712px;font-family:Bahnschrift;-inkscape-font-specification:Bahnschrift;stroke-width:0.45882148"
           id="path178" />
        <path
           d="m 70.504031,115.22864 q -0.869035,0 -1.514093,-0.41212 -0.645057,-0.42108 -0.949667,-1.18261 l 0.125427,-1.94413 q 0,0.60026 0.21502,1.02134 0.215019,0.42108 0.61818,0.64506 0.412119,0.22398 0.994463,0.22398 0.904872,0 1.397624,-0.54651 0.501711,-0.55546 0.501711,-1.55889 v -2.0158 q 0,-1.02134 -0.501711,-1.58577 -0.492752,-0.56442 -1.397624,-0.56442 -0.582344,0 -0.994463,0.21502 -0.403161,0.21502 -0.61818,0.63609 -0.21502,0.41212 -0.21502,0.99447 l -0.188141,-1.79183 q 0.421079,-0.81528 1.101973,-1.25428 0.680894,-0.44795 1.514093,-0.44795 0.985504,0 1.684316,0.44795 0.707771,0.439 1.075095,1.29012 0.367325,0.85112 0.367325,2.05164 v 2.02476 q 0,1.18261 -0.376284,2.02477 -0.376283,0.84215 -1.101973,1.29011 -0.725689,0.439 -1.738071,0.439 z m -4.165995,-13.16096 h 1.827662 v 13.02657 h -1.827662 z"
           style="font-style:normal;font-variant:normal;font-weight:normal;font-stretch:normal;font-size:18.34829712px;font-family:Bahnschrift;-inkscape-font-specification:Bahnschrift;stroke-width:0.45882148"
           id="path180" />
        <path
           d="m 80.144052,115.22864 q -1.290114,0 -2.203945,-0.4838 -0.913832,-0.48379 -1.397625,-1.41554 -0.474833,-0.94071 -0.474833,-2.26666 v -1.04822 q 0,-1.3797 0.456915,-2.35625 0.465875,-0.97654 1.34387,-1.48721 0.877994,-0.51067 2.114354,-0.51067 1.164687,0 1.988927,0.58234 0.82424,0.58234 1.254278,1.68432 0.438997,1.10197 0.438997,2.64294 v 0.60922 H 77.3936 v -1.4693 h 4.533319 v 0 q -0.08063,-1.13781 -0.591302,-1.76494 -0.501712,-0.6361 -1.352829,-0.6361 -1.039259,0 -1.612643,0.68089 -0.564425,0.6809 -0.564425,1.92621 v 1.18261 q 0,1.15573 0.60922,1.77391 0.609221,0.61818 1.729112,0.61818 0.555466,0 1.101973,-0.22398 0.546507,-0.22398 0.976545,-0.62714 v 0 l 1.200524,1.20052 v 0 q -0.689853,0.66298 -1.54993,1.0303 -0.860076,0.35837 -1.729112,0.35837 z"
           style="font-style:normal;font-variant:normal;font-weight:normal;font-stretch:normal;font-size:18.34829712px;font-family:Bahnschrift;-inkscape-font-specification:Bahnschrift;stroke-width:0.45882148"
           id="path182" />
        <path
           d="m 86.191468,105.79467 h 1.827662 v 9.29958 h -1.827662 z m 5.644251,3.66429 q 0,-0.98551 -0.51067,-1.52305 -0.51067,-0.53755 -1.433461,-0.53755 -0.895913,0 -1.388665,0.47483 -0.483793,0.47484 -0.483793,1.33491 l -0.188142,-1.79182 q 0.430039,-0.84216 1.119892,-1.29908 0.698812,-0.45691 1.54097,-0.45691 1.514093,0 2.338333,0.99446 0.833199,0.98551 0.833199,2.79525 v 5.64425 h -1.827663 z"
           style="font-style:normal;font-variant:normal;font-weight:normal;font-stretch:normal;font-size:18.34829712px;font-family:Bahnschrift;-inkscape-font-specification:Bahnschrift;stroke-width:0.45882148"
           id="path184" />
        <path
           d="m 105.20274,105.79467 h 1.8187 v 9.29958 h -1.8187 z m -3.78075,5.65322 q 0,0.97654 0.49275,1.51409 0.50171,0.52859 1.40658,0.52859 0.89591,0 1.38867,-0.47484 0.49275,-0.47483 0.49275,-1.35283 l 0.12543,1.94414 q -0.2867,0.68985 -0.93175,1.15572 -0.64506,0.46588 -1.58577,0.46588 -1.54097,0 -2.38313,-0.98551 -0.833197,-0.99446 -0.833197,-2.79524 v -5.65322 h 1.827667 z"
           style="font-style:normal;font-variant:normal;font-weight:normal;font-stretch:normal;font-size:18.34829712px;font-family:Bahnschrift;-inkscape-font-specification:Bahnschrift;stroke-width:0.45882148"
           id="path186" />
        <path
           d="m 120.91705,109.45896 q 0,-0.98551 -0.51067,-1.52305 -0.51067,-0.53755 -1.43346,-0.53755 -0.85112,0 -1.31699,0.51963 -0.46588,0.51963 -0.46588,1.4693 l -0.36732,-1.79183 q 0.439,-0.92279 1.15573,-1.4245 0.72569,-0.51067 1.59472,-0.51067 1.00343,0 1.7112,0.44795 0.71673,0.439 1.08405,1.29012 0.37629,0.85112 0.37629,2.05164 v 5.64425 h -1.82767 z m -11.10932,-3.66429 h 1.82766 v 9.29958 h -1.82766 z m 5.55466,3.66429 q 0,-0.98551 -0.48379,-1.52305 -0.48379,-0.53755 -1.37075,-0.53755 -0.89591,0 -1.38866,0.47483 -0.4838,0.47484 -0.4838,1.33491 l -0.18814,-1.79182 q 0.43004,-0.84216 1.11989,-1.29908 0.69882,-0.45691 1.54097,-0.45691 0.97655,0 1.6664,0.44795 0.68986,0.439 1.04822,1.29012 0.36732,0.85112 0.36732,2.05164 v 5.64425 h -1.82766 z"
           style="font-style:normal;font-variant:normal;font-weight:normal;font-stretch:normal;font-size:18.34829712px;font-family:Bahnschrift;-inkscape-font-specification:Bahnschrift;stroke-width:0.45882148"
           id="path188" />
        <path
           d="m 127.36763,112.6932 q 0,0.34045 0.14334,0.52859 0.15231,0.17919 0.42108,0.17919 h 0.86008 v 1.73807 h -1.0751 q -1.03926,0 -1.61264,-0.64506 -0.56443,-0.64506 -0.56443,-1.8187 v -10.60761 h 1.82767 z"
           style="font-style:normal;font-variant:normal;font-weight:normal;font-stretch:normal;font-size:18.34829712px;font-family:Bahnschrift;-inkscape-font-specification:Bahnschrift;stroke-width:0.45882148"
           id="path190" />
        <path
           d="m 134.6514,115.22864 q -1.29012,0 -2.20395,-0.4838 -0.91383,-0.48379 -1.39762,-1.41554 -0.47484,-0.94071 -0.47484,-2.26666 v -1.04822 q 0,-1.3797 0.45692,-2.35625 0.46587,-0.97654 1.34387,-1.48721 0.87799,-0.51067 2.11435,-0.51067 1.16469,0 1.98893,0.58234 0.82424,0.58234 1.25428,1.68432 0.43899,1.10197 0.43899,2.64294 v 0.60922 h -6.27139 v -1.4693 h 4.53332 v 0 q -0.0806,-1.13781 -0.5913,-1.76494 -0.50171,-0.6361 -1.35283,-0.6361 -1.03926,0 -1.61264,0.68089 -0.56443,0.6809 -0.56443,1.92621 v 1.18261 q 0,1.15573 0.60922,1.77391 0.60922,0.61818 1.72912,0.61818 0.55546,0 1.10197,-0.22398 0.54651,-0.22398 0.97654,-0.62714 v 0 l 1.20053,1.20052 v 0 q -0.68986,0.66298 -1.54993,1.0303 -0.86008,0.35837 -1.72911,0.35837 z"
           style="font-style:normal;font-variant:normal;font-weight:normal;font-stretch:normal;font-size:18.34829712px;font-family:Bahnschrift;-inkscape-font-specification:Bahnschrift;stroke-width:0.45882148"
           id="path192" />
        <path
           d="m 143.81658,118.875 q -1.04821,0 -1.88141,-0.3942 -0.82424,-0.38524 -1.28116,-1.09301 v 0 l 1.23636,-1.11989 v 0 q 0.35837,0.49275 0.85112,0.76152 0.50171,0.26878 1.04822,0.26878 1.04822,0 1.6216,-0.58235 0.57338,-0.57338 0.57338,-1.63056 v -9.29062 h 1.82767 v 9.02185 q 0,1.28115 -0.47484,2.19498 -0.46587,0.91384 -1.36179,1.38867 -0.89591,0.47483 -2.15915,0.47483 z m -0.17022,-3.61948 q -1.02134,0 -1.74703,-0.439 -0.71673,-0.44796 -1.09301,-1.29908 -0.37629,-0.85111 -0.37629,-2.04268 v -2.05164 q 0,-1.20052 0.36733,-2.05164 0.36732,-0.85112 1.06613,-1.29011 0.70778,-0.44796 1.69328,-0.44796 0.82424,0 1.50513,0.43004 0.68986,0.43004 1.11094,1.20948 l -0.18815,1.89934 q 0,-0.59131 -0.21502,-1.01239 -0.21501,-0.42107 -0.62713,-0.63609 -0.40317,-0.22398 -0.98551,-0.22398 -0.90487,0 -1.40658,0.56442 -0.49275,0.56443 -0.49275,1.58577 v 2.02476 q 0,1.01238 0.49275,1.56785 0.50171,0.54651 1.40658,0.54651 0.58234,0 0.98551,-0.22398 0.41212,-0.23294 0.62713,-0.66298 0.21502,-0.43003 0.21502,-1.0303 l 0.12543,1.96205 q -0.27773,0.68986 -0.91383,1.15573 -0.62714,0.46588 -1.54993,0.46588 z"
           style="font-style:normal;font-variant:normal;font-weight:normal;font-stretch:normal;font-size:18.34829712px;font-family:Bahnschrift;-inkscape-font-specification:Bahnschrift;stroke-width:0.45882148"
           id="path194" />
        <path
           d="m 154.39732,115.22864 q -1.29011,0 -2.20394,-0.4838 -0.91384,-0.48379 -1.39763,-1.41554 -0.47483,-0.94071 -0.47483,-2.26666 v -1.04822 q 0,-1.3797 0.45691,-2.35625 0.46588,-0.97654 1.34387,-1.48721 0.878,-0.51067 2.11436,-0.51067 1.16468,0 1.98892,0.58234 0.82424,0.58234 1.25428,1.68432 0.439,1.10197 0.439,2.64294 v 0.60922 h -6.27139 v -1.4693 h 4.53332 v 0 q -0.0806,-1.13781 -0.5913,-1.76494 -0.50172,-0.6361 -1.35283,-0.6361 -1.03926,0 -1.61265,0.68089 -0.56442,0.6809 -0.56442,1.92621 v 1.18261 q 0,1.15573 0.60922,1.77391 0.60922,0.61818 1.72911,0.61818 0.55547,0 1.10197,-0.22398 0.54651,-0.22398 0.97655,-0.62714 v 0 l 1.20052,1.20052 v 0 q -0.68985,0.66298 -1.54993,1.0303 -0.86007,0.35837 -1.72911,0.35837 z"
           style="font-style:normal;font-variant:normal;font-weight:normal;font-stretch:normal;font-size:18.34829712px;font-family:Bahnschrift;-inkscape-font-specification:Bahnschrift;stroke-width:0.45882148"
           id="path196" />
        <path
           d="m 160.44473,105.79467 h 1.82767 v 9.29958 h -1.82767 z m 5.64425,3.66429 q 0,-0.98551 -0.51067,-1.52305 -0.51067,-0.53755 -1.43346,-0.53755 -0.89591,0 -1.38866,0.47483 -0.48379,0.47484 -0.48379,1.33491 l -0.18815,-1.79182 q 0.43004,-0.84216 1.1199,-1.29908 0.69881,-0.45691 1.54097,-0.45691 1.51409,0 2.33833,0.99446 0.8332,0.98551 0.8332,2.79525 v 5.64425 h -1.82767 z"
           style="font-style:normal;font-variant:normal;font-weight:normal;font-stretch:normal;font-size:18.34829712px;font-family:Bahnschrift;-inkscape-font-specification:Bahnschrift;stroke-width:0.45882148"
           id="path198" />
      </g>
    </g>
    <path
       sodipodi:nodetypes="ccccc"
       inkscape:connector-curvature="0"
       id="path4575"
       d="M 27.875398,139.43358 H 177.7649 v 69.62153 H 27.875398 Z"
       style="fill:none;stroke:#000000;stroke-width:0.37847286px;stroke-linecap:butt;stroke-linejoin:miter;stroke-opacity:1" />
    <g
       aria-label="3. Roten Knopf 
      drücken"
       style="font-style:normal;font-weight:normal;font-size:20.17878151px;line-height:1.25;font-family:sans-serif;letter-spacing:0px;word-spacing:0px;fill:#000000;fill-opacity:1;stroke:none;stroke-width:0.50446951"
       id="text4581">
      <path
         d="m 44.485658,168.86245 q -1.201758,0 -2.117852,-0.43342 -0.916093,-0.44327 -1.47757,-1.27071 -0.551627,-0.83729 -0.699384,-2.0095 v 0 h 2.048898 v 0 q 0.08865,0.61073 0.384169,1.00475 0.295514,0.39402 0.758486,0.59103 0.472823,0.18716 1.103253,0.18716 0.994897,0 1.546524,-0.53193 0.551626,-0.53193 0.551626,-1.49727 v -0.43342 q 0,-1.0737 -0.522075,-1.65488 -0.522075,-0.59103 -1.477571,-0.59103 h -1.014598 v -1.91099 h 1.014598 q 0.837291,0 1.300263,-0.50237 0.462972,-0.50238 0.462972,-1.41847 v -0.44327 q 0,-0.84714 -0.492524,-1.31012 -0.482673,-0.46297 -1.379066,-0.46297 -0.512224,0 -0.916094,0.19701 -0.403869,0.18716 -0.689533,0.59103 -0.275813,0.39402 -0.403869,0.9949 v 0 h -2.039047 v 0 q 0.197009,-1.17221 0.738785,-2.0095 0.551626,-0.83729 1.388916,-1.27071 0.83729,-0.43342 1.920842,-0.43342 1.851889,0 2.866487,0.9752 1.014599,0.97519 1.014599,2.74828 v 0.23641 q 0,1.0737 -0.581178,1.87159 -0.581178,0.79789 -1.645029,1.16235 1.172207,0.25612 1.812487,1.15251 0.650131,0.89639 0.650131,2.28531 v 0.23641 q 0,1.25101 -0.482673,2.13755 -0.482673,0.88654 -1.408617,1.34952 -0.916094,0.46297 -2.216356,0.46297 z"
         style="font-style:normal;font-variant:normal;font-weight:normal;font-stretch:normal;font-size:20.17376518px;font-family:Bahnschrift;-inkscape-font-specification:Bahnschrift;stroke-width:0.50446951"
         id="path62" />
      <path
         d="m 51.262782,166.7052 h 2.009496 v 2.00949 h -2.009496 z"
         style="font-style:normal;font-variant:normal;font-weight:normal;font-stretch:normal;font-size:20.17376518px;font-family:Bahnschrift;-inkscape-font-specification:Bahnschrift;stroke-width:0.50446951"
         id="path64" />
      <path
         d="m 60.669981,160.74566 h 4.885834 q 0.571327,0 1.014599,-0.27581 0.443271,-0.27582 0.679682,-0.77819 0.246262,-0.51223 0.246262,-1.17221 v 0 q 0,-0.65998 -0.246262,-1.16235 -0.236411,-0.51223 -0.679682,-0.78804 -0.433421,-0.27581 -1.014599,-0.27581 h -4.885834 v -1.91099 h 4.80703 q 1.24116,0 2.176954,0.51222 0.945646,0.51222 1.45787,1.45787 0.522075,0.93579 0.522075,2.1671 v 0 q 0,1.23131 -0.522075,2.17696 -0.522075,0.93579 -1.46772,1.44802 -0.935795,0.51222 -2.167104,0.51222 h -4.80703 z m -0.876692,-6.3634 h 2.009497 v 14.33243 h -2.009497 z m 4.777479,7.83112 1.999646,-0.45312 3.664375,6.95443 h -2.383814 z"
         style="font-style:normal;font-variant:normal;font-weight:normal;font-stretch:normal;font-size:20.17376518px;font-family:Bahnschrift;-inkscape-font-specification:Bahnschrift;stroke-width:0.50446951"
         id="path66" />
      <path
         d="m 76.282978,168.86245 q -1.329814,0 -2.275459,-0.52208 -0.945645,-0.52207 -1.448019,-1.51697 -0.492524,-1.00475 -0.492524,-2.41336 v -1.66473 q 0,-1.38892 0.492524,-2.37397 0.502374,-0.9949 1.448019,-1.50712 0.945645,-0.52208 2.275459,-0.52208 1.329814,0 2.275459,0.52208 0.945645,0.51222 1.438169,1.50712 0.502374,0.98505 0.502374,2.37397 v 1.69428 q 0,1.39876 -0.502374,2.39366 -0.492524,0.98505 -1.438169,1.50712 -0.945645,0.52208 -2.275459,0.52208 z m 0,-1.91099 q 1.054001,0 1.625328,-0.65998 0.581178,-0.65999 0.581178,-1.85189 v -1.69428 q 0,-1.19191 -0.581178,-1.84204 -0.571327,-0.65013 -1.625328,-0.65013 -1.054,0 -1.635178,0.65013 -0.571327,0.65013 -0.571327,1.84204 v 1.69428 q 0,1.1919 0.571327,1.85189 0.581178,0.65998 1.635178,0.65998 z"
         style="font-style:normal;font-variant:normal;font-weight:normal;font-stretch:normal;font-size:20.17376518px;font-family:Bahnschrift;-inkscape-font-specification:Bahnschrift;stroke-width:0.50446951"
         id="path68" />
      <path
         d="m 86.015244,168.76394 q -1.24116,0 -1.822338,-0.67968 -0.571327,-0.68953 -0.571327,-2.0292 v -10.54 h 2.009496 v 10.5597 q 0,0.37432 0.147757,0.58118 0.147757,0.19701 0.433421,0.19701 h 0.965346 v 1.91099 z M 82.567579,158.4899 h 4.61002 v 1.81249 h -4.61002 z"
         style="font-style:normal;font-variant:normal;font-weight:normal;font-stretch:normal;font-size:20.17376518px;font-family:Bahnschrift;-inkscape-font-specification:Bahnschrift;stroke-width:0.50446951"
         id="path70" />
      <path
         d="m 94.122183,168.86245 q -1.418468,0 -2.423216,-0.53193 -1.004748,-0.53192 -1.536673,-1.55637 -0.522075,-1.0343 -0.522075,-2.49217 v -1.15251 q 0,-1.51697 0.502374,-2.59067 0.512224,-1.0737 1.47757,-1.63518 0.965346,-0.56148 2.324712,-0.56148 1.280561,0 2.186804,0.64029 0.906243,0.64028 1.379066,1.85188 0.482673,1.21161 0.482673,2.90589 v 0.66984 h -6.89533 v -1.61548 h 4.984339 v 0 q -0.08865,-1.25101 -0.650131,-1.94054 -0.551627,-0.69939 -1.487421,-0.69939 -1.142655,0 -1.773085,0.74864 -0.62058,0.74863 -0.62058,2.11785 v 1.30026 q 0,1.27071 0.669832,1.95039 0.669832,0.67969 1.901141,0.67969 0.610729,0 1.211608,-0.24626 0.600879,-0.24627 1.073701,-0.68954 v 0 l 1.319963,1.31997 v 0 q -0.758486,0.72893 -1.704131,1.1328 -0.945645,0.39402 -1.901141,0.39402 z"
         style="font-style:normal;font-variant:normal;font-weight:normal;font-stretch:normal;font-size:20.17376518px;font-family:Bahnschrift;-inkscape-font-specification:Bahnschrift;stroke-width:0.50446951"
         id="path72" />
      <path
         d="m 100.77125,158.4899 h 2.0095 v 10.22479 h -2.0095 z m 6.2058,4.02884 q 0,-1.08355 -0.56148,-1.67458 -0.56148,-0.59102 -1.57607,-0.59102 -0.98505,0 -1.52683,0.52207 -0.53192,0.52208 -0.53192,1.46772 l -0.20686,-1.97009 q 0.47282,-0.92595 1.23131,-1.42832 0.76833,-0.50238 1.69428,-0.50238 1.66473,0 2.57097,1.09341 0.91609,1.08355 0.91609,3.07334 v 6.2058 h -2.00949 z"
         style="font-style:normal;font-variant:normal;font-weight:normal;font-stretch:normal;font-size:20.17376518px;font-family:Bahnschrift;-inkscape-font-specification:Bahnschrift;stroke-width:0.50446951"
         id="path74" />
      <path
         d="m 117.28064,162.43009 6.324,-8.03798 h 2.47247 l -9.09199,11.05222 z m -1.57608,-8.03798 h 2.0095 v 14.32258 h -2.0095 z m 3.95989,6.67862 1.58593,-1.46772 5.42761,9.11168 h -2.46262 z"
         style="font-style:normal;font-variant:normal;font-weight:normal;font-stretch:normal;font-size:20.17376518px;font-family:Bahnschrift;-inkscape-font-specification:Bahnschrift;stroke-width:0.50446951"
         id="path76" />
      <path
         d="m 128.27376,158.4899 h 2.0095 v 10.22479 h -2.0095 z m 6.2058,4.02884 q 0,-1.08355 -0.56148,-1.67458 -0.56147,-0.59102 -1.57607,-0.59102 -0.98505,0 -1.52682,0.52207 -0.53193,0.52208 -0.53193,1.46772 l -0.20686,-1.97009 q 0.47282,-0.92595 1.23131,-1.42832 0.76834,-0.50238 1.69428,-0.50238 1.66473,0 2.57097,1.09341 0.9161,1.08355 0.9161,3.07334 v 6.2058 h -2.0095 z"
         style="font-style:normal;font-variant:normal;font-weight:normal;font-stretch:normal;font-size:20.17376518px;font-family:Bahnschrift;-inkscape-font-specification:Bahnschrift;stroke-width:0.50446951"
         id="path78" />
      <path
         d="m 143.4632,168.86245 q -1.32982,0 -2.27546,-0.52208 -0.94565,-0.52207 -1.44802,-1.51697 -0.49253,-1.00475 -0.49253,-2.41336 v -1.66473 q 0,-1.38892 0.49253,-2.37397 0.50237,-0.9949 1.44802,-1.50712 0.94564,-0.52208 2.27546,-0.52208 1.32981,0 2.27545,0.52208 0.94565,0.51222 1.43817,1.50712 0.50238,0.98505 0.50238,2.37397 v 1.69428 q 0,1.39876 -0.50238,2.39366 -0.49252,0.98505 -1.43817,1.50712 -0.94564,0.52208 -2.27545,0.52208 z m 0,-1.91099 q 1.054,0 1.62532,-0.65998 0.58118,-0.65999 0.58118,-1.85189 v -1.69428 q 0,-1.19191 -0.58118,-1.84204 -0.57132,-0.65013 -1.62532,-0.65013 -1.054,0 -1.63518,0.65013 -0.57133,0.65013 -0.57133,1.84204 v 1.69428 q 0,1.1919 0.57133,1.85189 0.58118,0.65998 1.63518,0.65998 z"
         style="font-style:normal;font-variant:normal;font-weight:normal;font-stretch:normal;font-size:20.17376518px;font-family:Bahnschrift;-inkscape-font-specification:Bahnschrift;stroke-width:0.50446951"
         id="path80" />
      <path
         d="m 150.53583,158.4899 h 2.0095 v 14.38169 h -2.0095 z m 4.58047,10.37255 q -0.95549,0 -1.66473,-0.45312 -0.70923,-0.46298 -1.04415,-1.30027 l 0.13791,-2.13755 q 0,0.65998 0.23641,1.12296 0.23641,0.46297 0.67968,0.70923 0.45313,0.24626 1.09341,0.24626 0.99489,0 1.53667,-0.60088 0.55163,-0.61073 0.55163,-1.71398 v -2.21636 q 0,-1.12295 -0.55163,-1.74353 -0.54178,-0.62058 -1.53667,-0.62058 -0.64028,0 -1.09341,0.23641 -0.44327,0.23641 -0.67968,0.69939 -0.23641,0.45312 -0.23641,1.0934 l -0.20686,-1.9701 q 0.46297,-0.89639 1.21161,-1.37906 0.74863,-0.49253 1.66473,-0.49253 1.08355,0 1.85189,0.49253 0.77818,0.48267 1.18205,1.41847 0.40387,0.93579 0.40387,2.25575 v 2.22621 q 0,1.30026 -0.41372,2.22621 -0.41372,0.92594 -1.21161,1.41847 -0.79788,0.48267 -1.91099,0.48267 z"
         style="font-style:normal;font-variant:normal;font-weight:normal;font-stretch:normal;font-size:20.17376518px;font-family:Bahnschrift;-inkscape-font-specification:Bahnschrift;stroke-width:0.50446951"
         id="path82" />
      <path
         d="m 161.82447,157.10099 q 0,-1.35937 0.62058,-2.0292 0.63043,-0.67968 1.9307,-0.67968 h 1.47757 v 1.91099 h -1.43817 q -0.28567,0 -0.43342,0.21671 -0.14776,0.21671 -0.14776,0.56147 v 11.63341 h -2.0095 z m -1.08355,1.38891 h 5.1124 v 1.71398 h -5.1124 z"
         style="font-style:normal;font-variant:normal;font-weight:normal;font-stretch:normal;font-size:20.17376518px;font-family:Bahnschrift;-inkscape-font-specification:Bahnschrift;stroke-width:0.50446951"
         id="path84" />
      <path
         d="m 67.496359,179.74446 h 2.009496 v 14.32258 h -2.009496 z m -2.570973,14.49989 q -1.122954,0 -1.920842,-0.48267 -0.788038,-0.49253 -1.201758,-1.42832 -0.413719,-0.9358 -0.413719,-2.24591 v -2.25576 q 0,-1.31996 0.403869,-2.25576 0.403869,-0.93579 1.172206,-1.41846 0.778187,-0.49253 1.861739,-0.49253 0.906243,0 1.654879,0.47283 0.758486,0.47282 1.221459,1.32981 l -0.20686,2.0883 q 0,-0.65013 -0.236412,-1.1131 -0.236411,-0.46298 -0.689533,-0.69939 -0.443271,-0.24626 -1.083551,-0.24626 -0.994898,0 -1.546524,0.62058 -0.541776,0.62058 -0.541776,1.74353 v 2.22621 q 0,1.1131 0.541776,1.72383 0.551626,0.60088 1.546524,0.60088 0.64028,0 1.083551,-0.24626 0.453122,-0.25611 0.689533,-0.72893 0.236412,-0.47283 0.236412,-1.13281 l 0.137906,2.15725 q -0.305364,0.75849 -1.004748,1.27071 -0.689533,0.51223 -1.704131,0.51223 z"
         style="font-style:normal;font-variant:normal;font-weight:normal;font-stretch:normal;font-size:20.17376518px;font-family:Bahnschrift;-inkscape-font-specification:Bahnschrift;stroke-width:0.50446951"
         id="path86" />
      <path
         d="m 72.559501,183.84225 h 2.009496 v 10.22479 h -2.009496 z m 5.624619,2.42322 q -0.265963,-0.32507 -0.669832,-0.49253 -0.40387,-0.16745 -0.935795,-0.16745 -0.955496,0 -1.487421,0.53192 -0.522075,0.52208 -0.522075,1.45787 l -0.20686,-1.97009 q 0.472822,-0.9161 1.221458,-1.41847 0.748636,-0.51223 1.654879,-0.51223 0.699384,0 1.260861,0.20686 0.571327,0.19701 0.994897,0.59103 z"
         style="font-style:normal;font-variant:normal;font-weight:normal;font-stretch:normal;font-size:20.17376518px;font-family:Bahnschrift;-inkscape-font-specification:Bahnschrift;stroke-width:0.50446951"
         id="path88" />
      <path
         d="m 87.354909,183.84225 h 1.999645 v 10.22479 h -1.999645 z m -4.156899,6.21565 q 0,1.0737 0.541776,1.66473 0.551626,0.58118 1.546524,0.58118 0.985047,0 1.526823,-0.52208 0.541776,-0.52207 0.541776,-1.48742 l 0.137906,2.13755 q -0.315215,0.75849 -1.024449,1.27071 -0.709234,0.51223 -1.743533,0.51223 -1.694281,0 -2.620226,-1.08355 -0.916093,-1.09341 -0.916093,-3.07335 v -6.21565 h 2.009496 z m 3.093048,-10.31344 h 2.009496 v 2.00949 h -2.009496 z m -4.137198,0 h 2.009496 v 2.00949 H 82.15386 Z"
         style="font-style:normal;font-variant:normal;font-weight:normal;font-stretch:normal;font-size:20.17376518px;font-family:Bahnschrift;-inkscape-font-specification:Bahnschrift;stroke-width:0.50446951"
         id="path90" />
      <path
         d="m 96.545399,194.2148 q -1.398767,0 -2.393664,-0.52208 -0.985048,-0.52207 -1.507123,-1.51697 -0.522075,-0.9949 -0.522075,-2.40351 v -1.68444 q 0,-1.38891 0.522075,-2.37396 0.522075,-0.98505 1.507123,-1.49727 0.994897,-0.52208 2.393664,-0.52208 0.797888,0 1.497272,0.19701 0.709234,0.18716 1.27071,0.55163 0.561477,0.36447 0.935799,0.88654 v 0 l -1.448023,1.30027 v 0 q -0.433421,-0.49253 -1.014599,-0.75849 -0.581177,-0.26596 -1.211608,-0.26596 -1.162355,0 -1.802636,0.65013 -0.64028,0.65013 -0.64028,1.83218 v 1.68444 q 0,1.2116 0.63043,1.87158 0.64028,0.65999 1.812486,0.65999 0.640281,0 1.221459,-0.28567 0.581178,-0.28566 1.004748,-0.80774 v 0 l 1.448023,1.39877 v 0 q -0.384172,0.51223 -0.945649,0.87669 -0.561477,0.35462 -1.270711,0.54178 -0.699383,0.18716 -1.487421,0.18716 z"
         style="font-style:normal;font-variant:normal;font-weight:normal;font-stretch:normal;font-size:20.17376518px;font-family:Bahnschrift;-inkscape-font-specification:Bahnschrift;stroke-width:0.50446951"
         id="path92" />
      <path
         d="m 103.33237,190.18596 5.26016,-6.34371 h 2.36411 l -7.75232,8.72752 z m -0.86684,-10.4415 h 2.0095 v 14.32258 h -2.0095 z m 3.24081,8.42215 1.29041,-1.33967 4.46226,7.2401 h -2.1868 z"
         style="font-style:normal;font-variant:normal;font-weight:normal;font-stretch:normal;font-size:20.17376518px;font-family:Bahnschrift;-inkscape-font-specification:Bahnschrift;stroke-width:0.50446951"
         id="path94" />
      <path
         d="m 117.32989,194.2148 q -1.41847,0 -2.42322,-0.53193 -1.00474,-0.53192 -1.53667,-1.55637 -0.52207,-1.0343 -0.52207,-2.49217 v -1.15251 q 0,-1.51697 0.50237,-2.59067 0.51222,-1.0737 1.47757,-1.63518 0.96535,-0.56148 2.32471,-0.56148 1.28056,0 2.18681,0.64029 0.90624,0.64028 1.37906,1.85188 0.48267,1.21161 0.48267,2.90589 v 0.66983 h -6.89533 v -1.61547 h 4.98434 v 0 q -0.0887,-1.25101 -0.65013,-1.94055 -0.55162,-0.69938 -1.48742,-0.69938 -1.14265,0 -1.77308,0.74864 -0.62058,0.74863 -0.62058,2.11785 v 1.30026 q 0,1.27071 0.66983,1.95039 0.66983,0.67969 1.90114,0.67969 0.61073,0 1.21161,-0.24627 0.60088,-0.24626 1.0737,-0.68953 v 0 l 1.31996,1.31996 v 0 q -0.75848,0.72894 -1.70413,1.13281 -0.94564,0.39402 -1.90114,0.39402 z"
         style="font-style:normal;font-variant:normal;font-weight:normal;font-stretch:normal;font-size:20.17376518px;font-family:Bahnschrift;-inkscape-font-specification:Bahnschrift;stroke-width:0.50446951"
         id="path96" />
      <path
         d="m 123.97896,183.84225 h 2.0095 v 10.22479 h -2.0095 z m 6.2058,4.02884 q 0,-1.08355 -0.56148,-1.67458 -0.56147,-0.59102 -1.57607,-0.59102 -0.98505,0 -1.52682,0.52207 -0.53193,0.52208 -0.53193,1.46772 l -0.20686,-1.97009 q 0.47282,-0.92595 1.23131,-1.42832 0.76834,-0.50238 1.69428,-0.50238 1.66473,0 2.57097,1.09341 0.9161,1.08355 0.9161,3.07334 v 6.2058 h -2.0095 z"
         style="font-style:normal;font-variant:normal;font-weight:normal;font-stretch:normal;font-size:20.17376518px;font-family:Bahnschrift;-inkscape-font-specification:Bahnschrift;stroke-width:0.50446951"
         id="path98" />
    </g>
    <path
       style="fill:none;stroke:#000000;stroke-width:0.37847286px;stroke-linecap:butt;stroke-linejoin:miter;stroke-opacity:1"
       d="M 27.875398,216.82595 H 177.7649 v 69.62153 H 27.875398 Z"
       id="path4587"
       inkscape:connector-curvature="0"
       sodipodi:nodetypes="ccccc" />
    <g
       aria-label="4. Quittung
      entnehmen"
       style="font-style:normal;font-weight:normal;font-size:20.19370079px;line-height:1.25;font-family:sans-serif;letter-spacing:0px;word-spacing:0px;fill:#000000;fill-opacity:1;stroke:none;stroke-width:0.50484252"
       id="text4593">
      <path
         d="m 43.663764,242.17465 4.810584,-10.38021 h 2.070128 l -4.692291,10.26192 h 7.028579 v 1.86311 h -9.217 z m 6.180812,-4.48528 h 1.961693 v 8.43824 h -1.961693 z"
         style="font-style:normal;font-variant:normal;font-weight:normal;font-stretch:normal;font-size:20.18868065px;font-family:Bahnschrift;-inkscape-font-specification:Bahnschrift;stroke-width:0.50484252"
         id="path23" />
      <path
         d="m 55.13819,244.10677 h 2.010982 v 2.01098 H 55.13819 Z"
         style="font-style:normal;font-variant:normal;font-weight:normal;font-stretch:normal;font-size:20.18868065px;font-family:Bahnschrift;-inkscape-font-specification:Bahnschrift;stroke-width:0.50484252"
         id="path25" />
      <path
         d="m 68.387012,242.14508 1.044922,-1.3308 5.342903,4.1994 -1.044922,1.34066 z m 0.02957,4.12054 q -1.498379,0 -2.641879,-0.65061 -1.143499,-0.66047 -1.774395,-1.85326 -0.621039,-1.20265 -0.621039,-2.77989 v -4.06139 q 0,-1.57724 0.621039,-2.77003 0.630896,-1.20265 1.774395,-1.85326 1.1435,-0.66047 2.641879,-0.66047 1.498378,0 2.641878,0.66047 1.143499,0.65061 1.764538,1.85326 0.630896,1.19279 0.630896,2.77003 v 4.06139 q 0,1.57724 -0.630896,2.77989 -0.621039,1.19279 -1.764538,1.85326 -1.1435,0.65061 -2.641878,0.65061 z m 0,-1.98141 q 0.887197,0 1.557525,-0.39431 0.680185,-0.40417 1.044922,-1.13364 0.374594,-0.73933 0.374594,-1.70539 v -4.19941 q 0,-0.96606 -0.374594,-1.69553 -0.364737,-0.73933 -1.044922,-1.13364 -0.670328,-0.40417 -1.557525,-0.40417 -0.887198,0 -1.567383,0.40417 -0.670328,0.39431 -1.044922,1.13364 -0.364737,0.72947 -0.364737,1.69553 v 4.19941 q 0,0.96606 0.364737,1.70539 0.374594,0.72947 1.044922,1.13364 0.680185,0.39431 1.567383,0.39431 z"
         style="font-style:normal;font-variant:normal;font-weight:normal;font-stretch:normal;font-size:20.18868065px;font-family:Bahnschrift;-inkscape-font-specification:Bahnschrift;stroke-width:0.50484252"
         id="path27" />
      <path
         d="m 82.858195,235.8854 h 2.001125 v 10.23235 h -2.001125 z m -4.159972,6.22025 q 0,1.07449 0.542177,1.66596 0.552034,0.5816 1.547667,0.5816 0.985775,0 1.527952,-0.52246 0.542176,-0.52246 0.542176,-1.48852 l 0.138009,2.13913 q -0.315448,0.75905 -1.025206,1.27166 -0.709759,0.5126 -1.744823,0.5126 -1.695534,0 -2.622163,-1.08435 -0.916771,-1.09422 -0.916771,-3.07562 v -6.22025 h 2.010982 z"
         style="font-style:normal;font-variant:normal;font-weight:normal;font-stretch:normal;font-size:20.18868065px;font-family:Bahnschrift;-inkscape-font-specification:Bahnschrift;stroke-width:0.50484252"
         id="path29" />
      <path
         d="m 87.92508,231.78458 h 2.010982 v 2.01098 H 87.92508 Z m 0,4.10082 h 2.010982 v 10.23235 H 87.92508 Z"
         style="font-style:normal;font-variant:normal;font-weight:normal;font-stretch:normal;font-size:20.18868065px;font-family:Bahnschrift;-inkscape-font-specification:Bahnschrift;stroke-width:0.50484252"
         id="path31" />
      <path
         d="m 95.673275,246.16704 q -1.242077,0 -1.823685,-0.68018 -0.571749,-0.69005 -0.571749,-2.0307 v -10.5478 h 2.010982 v 10.56751 q 0,0.3746 0.147866,0.58161 0.147866,0.19716 0.433741,0.19716 h 0.96606 v 1.9124 z M 92.223061,235.8854 h 4.613429 v 1.81383 h -4.613429 z"
         style="font-style:normal;font-variant:normal;font-weight:normal;font-stretch:normal;font-size:20.18868065px;font-family:Bahnschrift;-inkscape-font-specification:Bahnschrift;stroke-width:0.50484252"
         id="path33" />
      <path
         d="m 102.25825,246.16704 q -1.24207,0 -1.82368,-0.68018 -0.571749,-0.69005 -0.571749,-2.0307 v -10.5478 h 2.010979 v 10.56751 q 0,0.3746 0.14787,0.58161 0.14787,0.19716 0.43374,0.19716 h 0.96606 v 1.9124 z M 98.808041,235.8854 h 4.613429 v 1.81383 h -4.613429 z"
         style="font-style:normal;font-variant:normal;font-weight:normal;font-stretch:normal;font-size:20.18868065px;font-family:Bahnschrift;-inkscape-font-specification:Bahnschrift;stroke-width:0.50484252"
         id="path35" />
      <path
         d="m 112.3526,235.8854 h 2.00112 v 10.23235 h -2.00112 z m -4.15998,6.22025 q 0,1.07449 0.54218,1.66596 0.55203,0.5816 1.54767,0.5816 0.98577,0 1.52795,-0.52246 0.54218,-0.52246 0.54218,-1.48852 l 0.138,2.13913 q -0.31544,0.75905 -1.0252,1.27166 -0.70976,0.5126 -1.74482,0.5126 -1.69554,0 -2.62217,-1.08435 -0.91677,-1.09422 -0.91677,-3.07562 v -6.22025 h 2.01098 z"
         style="font-style:normal;font-variant:normal;font-weight:normal;font-stretch:normal;font-size:20.18868065px;font-family:Bahnschrift;-inkscape-font-specification:Bahnschrift;stroke-width:0.50484252"
         id="path37" />
      <path
         d="m 117.41948,235.8854 h 2.01098 v 10.23235 h -2.01098 z m 6.21039,4.03182 q 0,-1.08435 -0.5619,-1.67581 -0.56189,-0.59147 -1.57724,-0.59147 -0.98577,0 -1.52795,0.52246 -0.53232,0.52246 -0.53232,1.46881 l -0.20701,-1.97155 q 0.47317,-0.92663 1.23222,-1.42938 0.7689,-0.50274 1.69553,-0.50274 1.66596,0 2.57288,1.09421 0.91677,1.08435 0.91677,3.07562 v 6.21038 h -2.01098 z"
         style="font-style:normal;font-variant:normal;font-weight:normal;font-stretch:normal;font-size:20.18868065px;font-family:Bahnschrift;-inkscape-font-specification:Bahnschrift;stroke-width:0.50484252"
         id="path39" />
      <path
         d="m 132.12725,250.27772 q -1.15335,0 -2.07012,-0.43374 -0.90692,-0.42388 -1.40966,-1.20264 v 0 l 1.36037,-1.23222 v 0 q 0.39431,0.54217 0.93648,0.83791 0.55204,0.29573 1.15336,0.29573 1.15336,0 1.78425,-0.64075 0.6309,-0.6309 0.6309,-1.79412 V 235.8854 h 2.01098 v 9.92676 q 0,1.40966 -0.52246,2.41515 -0.5126,1.00549 -1.49838,1.52795 -0.98577,0.52246 -2.37572,0.52246 z m -0.18729,-3.98253 q -1.12379,0 -1.92227,-0.48303 -0.78862,-0.49289 -1.20264,-1.42937 -0.41403,-0.93649 -0.41403,-2.24757 v -2.25743 q 0,-1.32094 0.40417,-2.25742 0.40417,-0.93649 1.17307,-1.41952 0.77877,-0.49289 1.86312,-0.49289 0.90691,0 1.6561,0.47318 0.75905,0.47317 1.22236,1.33079 l -0.20701,2.08985 q 0,-0.65062 -0.23659,-1.11393 -0.23658,-0.46331 -0.69004,-0.6999 -0.4436,-0.24644 -1.08435,-0.24644 -0.99563,0 -1.54767,0.62103 -0.54218,0.62104 -0.54218,1.74483 v 2.22785 q 0,1.11393 0.54218,1.72511 0.55204,0.60132 1.54767,0.60132 0.64075,0 1.08435,-0.24644 0.45346,-0.25631 0.69004,-0.72948 0.23659,-0.47317 0.23659,-1.13364 l 0.13801,2.15885 q -0.30559,0.75905 -1.00549,1.27165 -0.69005,0.5126 -1.70539,0.5126 z"
         style="font-style:normal;font-variant:normal;font-weight:normal;font-stretch:normal;font-size:20.18868065px;font-family:Bahnschrift;-inkscape-font-specification:Bahnschrift;stroke-width:0.50484252"
         id="path41" />
      <path
         d="m 68.968618,271.63671 q -1.419517,0 -2.425008,-0.53232 -1.00549,-0.53232 -1.537809,-1.55752 -0.522461,-1.03507 -0.522461,-2.49401 v -1.15336 q 0,-1.51809 0.502745,-2.59259 0.512604,-1.0745 1.478663,-1.63639 0.96606,-0.56189 2.32643,-0.56189 1.281509,0 2.188422,0.64075 0.906913,0.64076 1.380085,1.85326 0.48303,1.21251 0.48303,2.90804 v 0.67033 h -6.900428 v -1.61667 h 4.988024 v 0 q -0.08872,-1.25194 -0.650612,-1.94198 -0.552034,-0.6999 -1.488521,-0.6999 -1.143499,0 -1.774395,0.74919 -0.621039,0.74919 -0.621039,2.11941 v 1.30123 q 0,1.27165 0.670327,1.95183 0.670328,0.68019 1.902547,0.68019 0.611181,0 1.212504,-0.24645 0.601323,-0.24644 1.074495,-0.69004 v 0 l 1.320939,1.32094 v 0 q -0.759047,0.72947 -1.705391,1.13364 -0.946345,0.39431 -1.902547,0.39431 z"
         style="font-style:normal;font-variant:normal;font-weight:normal;font-stretch:normal;font-size:20.18868065px;font-family:Bahnschrift;-inkscape-font-specification:Bahnschrift;stroke-width:0.50484252"
         id="path43" />
      <path
         d="m 75.622603,261.2565 h 2.010982 v 10.23235 h -2.010982 z m 6.210385,4.03182 q 0,-1.08435 -0.561892,-1.67582 -0.561892,-0.59146 -1.57724,-0.59146 -0.985776,0 -1.527952,0.52246 -0.532319,0.52246 -0.532319,1.4688 l -0.207013,-1.97155 q 0.473172,-0.92663 1.232219,-1.42937 0.768905,-0.50275 1.695534,-0.50275 1.665961,0 2.572874,1.09421 0.916771,1.08435 0.916771,3.07562 v 6.21039 h -2.010982 z"
         style="font-style:normal;font-variant:normal;font-weight:normal;font-stretch:normal;font-size:20.18868065px;font-family:Bahnschrift;-inkscape-font-specification:Bahnschrift;stroke-width:0.50484252"
         id="path45" />
      <path
         d="m 89.561466,271.53813 q -1.242077,0 -1.823684,-0.68018 -0.57175,-0.69004 -0.57175,-2.0307 v -10.54779 h 2.010982 v 10.56751 q 0,0.37459 0.147866,0.58161 0.147866,0.19715 0.433741,0.19715 h 0.96606 v 1.9124 z M 86.111252,261.2565 h 4.613429 v 1.81382 h -4.613429 z"
         style="font-style:normal;font-variant:normal;font-weight:normal;font-stretch:normal;font-size:20.18868065px;font-family:Bahnschrift;-inkscape-font-specification:Bahnschrift;stroke-width:0.50484252"
         id="path47" />
      <path
         d="m 93.484853,261.2565 h 2.010981 v 10.23235 h -2.010981 z m 6.210385,4.03182 q 0,-1.08435 -0.561892,-1.67582 -0.561892,-0.59146 -1.577241,-0.59146 -0.985775,0 -1.527952,0.52246 -0.532319,0.52246 -0.532319,1.4688 l -0.207012,-1.97155 q 0.473172,-0.92663 1.232219,-1.42937 0.768905,-0.50275 1.695534,-0.50275 1.66596,0 2.572875,1.09421 0.91677,1.08435 0.91677,3.07562 v 6.21039 h -2.010982 z"
         style="font-style:normal;font-variant:normal;font-weight:normal;font-stretch:normal;font-size:20.18868065px;font-family:Bahnschrift;-inkscape-font-specification:Bahnschrift;stroke-width:0.50484252"
         id="path49" />
      <path
         d="m 108.95167,271.63671 q -1.41952,0 -2.42501,-0.53232 -1.00549,-0.53232 -1.53781,-1.55752 -0.52246,-1.03507 -0.52246,-2.49401 v -1.15336 q 0,-1.51809 0.50275,-2.59259 0.5126,-1.0745 1.47866,-1.63639 0.96606,-0.56189 2.32643,-0.56189 1.28151,0 2.18842,0.64075 0.90691,0.64076 1.38009,1.85326 0.48303,1.21251 0.48303,2.90804 v 0.67033 h -6.90043 v -1.61667 h 4.98802 v 0 q -0.0887,-1.25194 -0.65061,-1.94198 -0.55203,-0.6999 -1.48852,-0.6999 -1.1435,0 -1.7744,0.74919 -0.62103,0.74919 -0.62103,2.11941 v 1.30123 q 0,1.27165 0.67032,1.95183 0.67033,0.68019 1.90255,0.68019 0.61118,0 1.2125,-0.24645 0.60133,-0.24644 1.0745,-0.69004 v 0 l 1.32094,1.32094 v 0 q -0.75905,0.72947 -1.70539,1.13364 -0.94635,0.39431 -1.90255,0.39431 z"
         style="font-style:normal;font-variant:normal;font-weight:normal;font-stretch:normal;font-size:20.18868065px;font-family:Bahnschrift;-inkscape-font-specification:Bahnschrift;stroke-width:0.50484252"
         id="path51" />
      <path
         d="m 115.60565,257.15567 h 2.01098 v 14.33318 h -2.01098 z m 6.21039,8.13265 q 0,-1.08435 -0.56189,-1.67582 -0.5619,-0.59146 -1.57724,-0.59146 -0.98578,0 -1.52796,0.5126 -0.53232,0.5126 -0.53232,1.44909 l -0.20701,-1.97155 q 0.47317,-0.90692 1.23222,-1.3998 0.76891,-0.50275 1.69553,-0.50275 1.66597,0 2.57288,1.09421 0.91677,1.08435 0.91677,3.07562 v 6.21039 h -2.01098 z"
         style="font-style:normal;font-variant:normal;font-weight:normal;font-stretch:normal;font-size:20.18868065px;font-family:Bahnschrift;-inkscape-font-specification:Bahnschrift;stroke-width:0.50484252"
         id="path53" />
      <path
         d="m 139.10654,265.28832 q 0,-1.08435 -0.56189,-1.67582 -0.56189,-0.59146 -1.57724,-0.59146 -0.93649,0 -1.44909,0.57174 -0.5126,0.57175 -0.5126,1.61668 l -0.40417,-1.97155 q 0.48303,-1.01535 1.27165,-1.56739 0.79848,-0.56189 1.75468,-0.56189 1.10407,0 1.88283,0.49289 0.78862,0.48303 1.19279,1.41952 0.41402,0.93648 0.41402,2.25742 v 6.21039 h -2.01098 z m -12.22361,-4.03182 h 2.01098 v 10.23235 h -2.01098 z m 6.11181,4.03182 q 0,-1.08435 -0.53232,-1.67582 -0.53232,-0.59146 -1.50824,-0.59146 -0.98578,0 -1.52795,0.52246 -0.53232,0.52246 -0.53232,1.4688 l -0.20701,-1.97155 q 0.47317,-0.92663 1.23222,-1.42937 0.7689,-0.50275 1.69553,-0.50275 1.07449,0 1.83354,0.49289 0.75905,0.48303 1.15336,1.41952 0.40417,0.93648 0.40417,2.25742 v 6.21039 h -2.01098 z"
         style="font-style:normal;font-variant:normal;font-weight:normal;font-stretch:normal;font-size:20.18868065px;font-family:Bahnschrift;-inkscape-font-specification:Bahnschrift;stroke-width:0.50484252"
         id="path55" />
      <path
         d="m 148.38269,271.63671 q -1.41951,0 -2.42501,-0.53232 -1.00549,-0.53232 -1.53781,-1.55752 -0.52246,-1.03507 -0.52246,-2.49401 v -1.15336 q 0,-1.51809 0.50275,-2.59259 0.5126,-1.0745 1.47866,-1.63639 0.96606,-0.56189 2.32643,-0.56189 1.28151,0 2.18842,0.64075 0.90692,0.64076 1.38009,1.85326 0.48303,1.21251 0.48303,2.90804 v 0.67033 h -6.90043 v -1.61667 h 4.98803 v 0 q -0.0887,-1.25194 -0.65062,-1.94198 -0.55203,-0.6999 -1.48852,-0.6999 -1.1435,0 -1.77439,0.74919 -0.62104,0.74919 -0.62104,2.11941 v 1.30123 q 0,1.27165 0.67033,1.95183 0.67032,0.68019 1.90254,0.68019 0.61118,0 1.21251,-0.24645 0.60132,-0.24644 1.07449,-0.69004 v 0 l 1.32094,1.32094 v 0 q -0.75905,0.72947 -1.70539,1.13364 -0.94635,0.39431 -1.90255,0.39431 z"
         style="font-style:normal;font-variant:normal;font-weight:normal;font-stretch:normal;font-size:20.18868065px;font-family:Bahnschrift;-inkscape-font-specification:Bahnschrift;stroke-width:0.50484252"
         id="path57" />
      <path
         d="m 155.03668,261.2565 h 2.01098 v 10.23235 h -2.01098 z m 6.21038,4.03182 q 0,-1.08435 -0.56189,-1.67582 -0.56189,-0.59146 -1.57724,-0.59146 -0.98578,0 -1.52795,0.52246 -0.53232,0.52246 -0.53232,1.4688 l -0.20702,-1.97155 q 0.47318,-0.92663 1.23222,-1.42937 0.76891,-0.50275 1.69554,-0.50275 1.66596,0 2.57287,1.09421 0.91677,1.08435 0.91677,3.07562 v 6.21039 h -2.01098 z"
         style="font-style:normal;font-variant:normal;font-weight:normal;font-stretch:normal;font-size:20.18868065px;font-family:Bahnschrift;-inkscape-font-specification:Bahnschrift;stroke-width:0.50484252"
         id="path59" />
    </g>
  </g>
</svg>
